<?xml version="1.0" standalone="no"?>
<!DOCTYPE svg PUBLIC "-//W3C//DTD SVG 20010904//EN"
 "http://www.w3.org/TR/2001/REC-SVG-20010904/DTD/svg10.dtd">
<svg version="1.0" xmlns="http://www.w3.org/2000/svg"
 width="235.000000pt" height="59.000000pt" viewBox="0 0 235.000000 59.000000"
 preserveAspectRatio="xMidYMid meet">

<g transform="translate(0.000000,59.000000) scale(0.100000,-0.100000)"
fill="#000000" stroke="none">
<path d="M0 295 l0 -295 1175 0 1175 0 0 295 0 295 -1175 0 -1175 0 0 -295z
m250 95 c0 -16 -7 -20 -35 -20 l-35 0 0 -95 c0 -78 -3 -95 -15 -95 -12 0 -15
17 -15 95 l0 95 -35 0 c-28 0 -35 4 -35 20 0 18 7 20 85 20 78 0 85 -2 85 -20z
m60 -22 c0 -33 3 -39 12 -30 20 20 55 13 77 -14 16 -20 21 -41 21 -85 0 -52
-2 -59 -20 -59 -16 0 -19 8 -22 63 -3 57 -5 62 -27 65 -31 5 -41 -12 -41 -75
0 -46 -3 -53 -20 -53 -19 0 -20 7 -20 108 0 110 3 122 27 122 9 0 13 -14 13
-42z m541 13 c16 -16 29 -34 29 -40 0 -17 -40 -13 -47 5 -8 23 -48 35 -77 24
-28 -10 -47 -61 -39 -104 10 -52 74 -73 108 -36 10 11 26 20 36 20 29 0 3 -46
-36 -65 -41 -19 -49 -19 -90 0 -40 20 -55 51 -55 116 0 42 5 55 29 80 23 23
38 29 71 29 33 0 48 -6 71 -29z m89 -5 c0 -34 1 -35 33 -29 48 7 70 -22 75
-103 4 -60 3 -64 -17 -64 -19 0 -21 6 -21 54 0 64 -19 92 -51 76 -15 -9 -19
-22 -19 -70 0 -53 -2 -60 -20 -60 -19 0 -20 7 -20 115 0 108 1 115 20 115 16
0 20 -7 20 -34z m500 -28 l0 -62 33 32 c30 29 67 43 67 25 0 -4 -14 -22 -32
-40 l-32 -33 32 -39 c37 -46 38 -51 13 -51 -10 0 -33 17 -50 38 l-30 37 -1
-37 c0 -31 -4 -38 -20 -38 -19 0 -20 7 -20 115 0 108 1 115 20 115 18 0 20 -7
20 -62z m158 -56 c3 -107 2 -112 -18 -112 -19 0 -20 6 -20 116 0 105 2 115 18
112 15 -3 17 -18 20 -116z m61 82 c-9 -11 -15 -12 -25 -3 -11 9 -12 15 -3 25
9 11 15 12 25 3 11 -9 12 -15 3 -25z m231 -4 c0 -11 7 -20 15 -20 8 0 15 -7
15 -15 0 -9 -7 -18 -15 -21 -21 -9 -21 -104 0 -104 8 0 15 -9 15 -20 0 -26
-24 -26 -50 0 -14 14 -20 33 -20 65 0 25 -6 55 -12 66 -10 17 -10 23 0 26 6 3
12 13 12 24 0 12 7 19 20 19 13 0 20 -7 20 -20z m-1325 -45 c14 -13 25 -36 25
-50 0 -24 -3 -25 -56 -25 -47 0 -55 -3 -52 -17 4 -23 34 -28 63 -13 36 19 50
8 27 -20 -14 -18 -29 -24 -57 -24 -48 0 -75 31 -75 86 0 47 35 88 75 88 14 0
37 -11 50 -25z m610 19 c18 -7 45 -54 45 -79 0 -12 -13 -15 -60 -15 -58 0 -60
-1 -50 -20 11 -21 54 -28 65 -10 10 16 35 12 35 -6 0 -22 -63 -46 -92 -35 -36
14 -51 37 -51 82 0 65 51 104 108 83z m182 -18 c22 -20 25 -27 16 -37 -10 -10
-16 -9 -31 4 -38 35 -72 17 -72 -37 0 -40 53 -65 66 -31 6 14 44 22 44 9 0
-17 -24 -46 -45 -54 -79 -30 -142 84 -80 145 31 32 66 32 102 1z m303 -61 c0
-69 -3 -85 -15 -85 -12 0 -15 16 -15 85 0 69 3 85 15 85 12 0 15 -16 15 -85z
m140 65 c11 -11 20 -24 20 -30 0 -15 -30 -12 -47 5 -17 18 -38 15 -38 -5 0 -8
13 -17 28 -21 39 -11 57 -27 57 -54 0 -31 -25 -49 -68 -48 -48 1 -89 53 -42
53 11 0 20 -4 20 -10 0 -5 11 -10 25 -10 34 0 32 26 -2 35 -33 8 -63 33 -63
52 0 22 38 53 65 53 14 0 34 -9 45 -20z m248 4 c19 -13 22 -24 22 -84 l0 -69
-29 1 c-15 1 -33 -2 -39 -6 -15 -9 -60 14 -65 33 -9 44 22 71 79 71 16 0 24 5
22 13 -6 15 -58 22 -58 8 0 -6 -9 -11 -20 -11 -11 0 -20 5 -20 10 0 18 40 50
63 50 12 0 33 -7 45 -16z m142 0 c0 -8 -11 -19 -25 -24 -23 -9 -25 -15 -25
-70 0 -53 -2 -60 -20 -60 -18 0 -20 7 -20 78 0 43 2 81 5 84 4 3 24 6 45 6 29
1 40 -3 40 -14z"/>
<path d="M487 304 c-15 -16 -5 -24 29 -24 24 0 34 4 32 13 -5 13 -50 22 -61
11z"/>
<path d="M1117 303 c-15 -15 -5 -23 28 -23 26 0 33 3 29 15 -6 15 -45 21 -57
8z"/>
<path d="M1981 241 c-7 -5 -10 -14 -7 -20 11 -18 44 -13 56 9 9 17 8 20 -12
20 -13 0 -29 -4 -37 -9z"/>
</g>
</svg>
